# xmcd
#
# Track frame offsets: 
#        150
#        8410
#        27259
#        47904
#        65299
#        81772
#        96121
#        114600
#        138996
#        156742
#        162269
#        171854
#        189371
#        233667
#        250926
#        271048
#        279444
#        302571
#
# Disc length: 4384 seconds
#
# Revision: 0
# Processed by: cddbd v1.5.2PL0 Copyright (c) Steve Scherf et al.
# Submitted via: ExactAudioCopy v0.95b3
#
DISCID=e5111e12
DTITLE=Jimi Hendrix  - Moonbeams and Fairytales - Disc 15
DYEAR=1900
DGENRE=
TTITLE0=Sgt Pepper's Lonely Hearts Club Band
TTITLE1=Hey Joe
TTITLE2=I Don't Live Today
TTITLE3=The Wind Cries Mary
TTITLE4=Foxy Lady
TTITLE5=Fire
TTITLE6=The Burning of the Midnight Lamp
TTITLE7=Purple Haze
TTITLE8=Interview (Klas Burling)
TTITLE9=Introduction
TTITLE10=Sgt Pepper's Lonely Hearts Club Band
TTITLE11=Foxy Lady
TTITLE12=Catfish Blues
TTITLE13=Fire
TTITLE14=The Wind Cries Mary
TTITLE15=Have Mercy
TTITLE16=Manic Depression
TTITLE17=Purple Haze
EXTD=
EXTT0=
EXTT1=
EXTT2=
EXTT3=
EXTT4=
EXTT5=
EXTT6=
EXTT7=
EXTT8=
EXTT9=
EXTT10=
EXTT11=
EXTT12=
EXTT13=
EXTT14=
EXTT15=
EXTT16=
EXTT17=
PLAYORDER=
